<svg xmlns="http://www.w3.org/2000/svg" width="144" height="54" fill="none" viewBox="0 0 144 54">
  <path fill="#000" fill-rule="evenodd" d="M121.791 22.473c-.606-.246-1.85-.643-2.864-.966-.701-.224-1.291-.412-1.484-.491-3.726-1.527-2.369-4.371.391-4.371 2.042 0 3.624.847 5.011 1.773v-6.816c-2.697-.82-4.088-1.128-6.324-1.128-6.006 0-9.093 4.392-9.107 8.82-.008 3.114 2.407 6.534 5.227 7.573l1.555.574c1.195.442 1.685.623 2.788 1.002 2.965 1.024 2.975 5.246-1.08 5.246-1.311 0-4.565-.386-6.493-4.553L97.989.17 83.43 38.638V17.955h6.02V11.32H64.625v17.097L51.434 11.335v-.014h-7.71v28.676h7.71V22.59l13.404 17.407h7.5V17.955h3.382v22.042h15.402l1.78-5.586h8.61l-2.05-6.014h-4.634l3.161-9.332 4.263 11.845c2.699 7.25 7.791 9.755 13.498 9.755 5.708 0 11.492-3.352 11.492-10.215 0-4.907-2.879-6.937-5.451-7.977ZM41.216 5.456a4.362 4.362 0 1 1-8.727 0 4.366 4.366 0 0 1 4.365-4.363 4.362 4.362 0 0 1 4.362 4.363Zm-10.87 14.99.081.056v-7.954a15.88 15.88 0 0 0-7.08-1.65c-8.493 0-15.378 6.638-15.378 14.832 0 8.192 6.885 14.836 15.378 14.836 2.566 0 5.093-.61 7.219-1.678v-7.821c-3.316 2.237-4.093 2.539-7.22 2.539-3.973 0-7.197-3.525-7.197-7.876 0-4.349 3.224-7.876 7.198-7.876 3.232 0 4.583.93 7 2.592Zm100.531 13.399c-1.781 0-3.289 1.37-3.289 3.229 0 1.878 1.508 3.248 3.289 3.248 1.767 0 3.273-1.37 3.273-3.248 0-1.86-1.507-3.23-3.273-3.23Zm2.621 3.229c0 1.56-1.156 2.705-2.621 2.705-1.481 0-2.641-1.145-2.641-2.705 0-1.533 1.16-2.69 2.641-2.69 1.465 0 2.621 1.156 2.621 2.69Zm-3.871 1.878h.566v-1.623h.651l.984 1.623h.636l-1.064-1.648c.547-.07.97-.36.97-1.027 0-.737-.438-1.062-1.322-1.062h-1.421v3.736Zm2.148-2.71c0 .575-.425.608-.904.608h-.678v-1.156h.769c.397 0 .813.085.813.548Zm-91.066-24.92h-7.71v28.676h7.71V11.322Zm3.928 38.692c0-.582.097-1.108.293-1.58.195-.472.466-.874.815-1.205a3.59 3.59 0 0 1 1.241-.764 4.472 4.472 0 0 1 1.57-.267c.567 0 1.09.089 1.57.267.478.177.891.432 1.24.764.35.331.621.733.816 1.205a4.1 4.1 0 0 1 .292 1.58 4.11 4.11 0 0 1-.292 1.58 3.463 3.463 0 0 1-.816 1.205 3.598 3.598 0 0 1-1.24.764 4.474 4.474 0 0 1-1.57.267 4.47 4.47 0 0 1-1.57-.267 3.59 3.59 0 0 1-1.241-.764 3.465 3.465 0 0 1-.815-1.206 4.098 4.098 0 0 1-.293-1.58Zm1.662 0c0 .341.053.654.159.938a2.077 2.077 0 0 0 1.17 1.226c.276.116.585.174.927.174.342 0 .652-.058.929-.174a2.086 2.086 0 0 0 1.169-1.226 2.66 2.66 0 0 0 .159-.938c0-.336-.053-.647-.16-.934a2.085 2.085 0 0 0-1.17-1.23 2.374 2.374 0 0 0-.927-.175c-.342 0-.65.058-.928.174a2.084 2.084 0 0 0-1.17 1.231 2.677 2.677 0 0 0-.158.934ZM2.81 46.382H0v7.263h1.6v-2.903h.79l1.518 2.903h1.918L3.98 50.578c.513-.096.903-.323 1.17-.683.266-.359.4-.794.4-1.307 0-.424-.074-.778-.221-1.062a1.789 1.789 0 0 0-.595-.677 2.502 2.502 0 0 0-.872-.359 4.966 4.966 0 0 0-1.051-.108Zm-.267 3.006H1.6v-1.652h1.046c.144 0 .29.01.441.031.15.02.284.06.4.118a.753.753 0 0 1 .288.251c.075.11.112.257.112.442 0 .198-.042.352-.128.461a.756.756 0 0 1-.323.241 1.43 1.43 0 0 1-.436.093 7.35 7.35 0 0 1-.456.015Zm9.315-3.006H6.925v7.263h5.118v-1.477H8.525v-1.477h3.149v-1.478h-3.15V47.86h3.335v-1.478Zm4.14 0h1.323l3.16 7.263h-1.806l-.626-1.539h-2.82l-.606 1.539H12.86l3.139-7.263Zm.615 2.113-.882 2.257h1.774l-.892-2.257Zm7.098-2.113h-2.4v7.263h2.615c.54 0 1.057-.079 1.55-.236a3.961 3.961 0 0 0 1.302-.692c.376-.305.675-.68.898-1.129.222-.448.333-.966.333-1.554 0-.663-.114-1.227-.344-1.693a3.091 3.091 0 0 0-.928-1.133 3.8 3.8 0 0 0-1.37-.63 6.872 6.872 0 0 0-1.656-.196Zm.031 5.786h-.83V47.86h.943c.335 0 .655.042.96.128.303.086.568.214.794.385.226.17.405.388.538.65.134.264.2.574.2.93 0 .41-.066.757-.2 1.04a1.795 1.795 0 0 1-.548.687 2.2 2.2 0 0 1-.826.375 4.472 4.472 0 0 1-1.03.113Zm6.648-1.621-2.728-4.165h1.99l1.538 2.719 1.631-2.719h1.898l-2.729 4.165v3.098h-1.6v-3.098Zm13.448-4.165h-4.872v7.263h1.6v-2.83h3.026v-1.478h-3.026V47.86h3.272v-1.478Zm12.523 0H53.55v7.263h1.6v-2.903h.79l1.518 2.903h1.918l-1.846-3.067c.513-.096.903-.323 1.17-.683.266-.359.4-.794.4-1.307 0-.424-.074-.778-.221-1.062a1.788 1.788 0 0 0-.595-.677 2.502 2.502 0 0 0-.872-.359 4.966 4.966 0 0 0-1.051-.108Zm-.267 3.006h-.944v-1.652h1.046c.144 0 .29.01.441.031.15.02.284.06.4.118a.753.753 0 0 1 .288.251c.075.11.113.257.113.442 0 .198-.043.352-.129.461a.756.756 0 0 1-.323.241 1.43 1.43 0 0 1-.435.093 7.38 7.38 0 0 1-.457.015Zm9.16-1.59h-2.072v-1.416h5.744v1.416h-2.072v5.847h-1.6v-5.847Zm6.225-1.416h-1.6v7.263h1.6v-3.14h3.108v3.14h1.6v-7.263h-1.6v2.709H71.48v-2.709Zm5.981 0h4.934v1.478h-3.333v1.353h3.149v1.478h-3.15v1.477h3.52v1.477h-5.12v-7.263Zm11.037 0h-1.744l2.154 7.263h1.374l1.6-5.026h.021l1.6 5.026h1.427l2.123-7.263h-1.62l-1.221 4.78h-.021l-1.508-4.78h-1.487l-1.518 4.657h-.02l-1.16-4.657Zm8.707 3.632a4.1 4.1 0 0 1 .293-1.58c.195-.472.466-.874.815-1.205a3.59 3.59 0 0 1 1.241-.764 4.474 4.474 0 0 1 1.57-.267c.567 0 1.09.089 1.569.267a3.58 3.58 0 0 1 1.241.764c.349.331.621.733.816 1.205a4.1 4.1 0 0 1 .292 1.58 4.1 4.1 0 0 1-.292 1.58 3.465 3.465 0 0 1-.816 1.205 3.585 3.585 0 0 1-1.241.764 4.475 4.475 0 0 1-1.569.267 4.474 4.474 0 0 1-1.57-.267 3.585 3.585 0 0 1-1.24-.764 3.46 3.46 0 0 1-.816-1.206 4.098 4.098 0 0 1-.293-1.58Zm1.662 0c0 .341.053.654.16.938a2.075 2.075 0 0 0 1.17 1.226c.276.116.585.174.927.174.342 0 .651-.058.928-.174a2.084 2.084 0 0 0 1.17-1.226 2.66 2.66 0 0 0 .159-.938c0-.336-.053-.647-.159-.934a2.073 2.073 0 0 0-1.17-1.23 2.372 2.372 0 0 0-.928-.175 2.38 2.38 0 0 0-.928.174 2.082 2.082 0 0 0-1.17 1.231 2.678 2.678 0 0 0-.159.934Zm10.063-3.632h-2.81v7.263h1.6v-2.903h.79l1.518 2.903h1.918l-1.846-3.067c.513-.096.902-.323 1.169-.683.267-.359.4-.794.4-1.307 0-.424-.073-.778-.22-1.062a1.793 1.793 0 0 0-.595-.677 2.502 2.502 0 0 0-.872-.359 4.969 4.969 0 0 0-1.052-.108Zm-.266 3.006h-.944v-1.652h1.046c.144 0 .291.01.441.031.151.02.284.06.4.118a.753.753 0 0 1 .287.251c.075.11.113.257.113.442 0 .198-.042.352-.128.461a.752.752 0 0 1-.323.241 1.43 1.43 0 0 1-.436.093c-.161.01-.313.015-.456.015Zm4.381-3.006h1.6v3.016l2.821-3.016h2.092l-3.231 3.375 3.508 3.888h-2.236l-2.954-3.447v3.447h-1.6v-7.263Zm10.017 0h-2.4v7.263h2.616c.54 0 1.056-.079 1.549-.236a3.977 3.977 0 0 0 1.303-.692 3.34 3.34 0 0 0 .897-1.129c.222-.448.333-.966.333-1.554 0-.663-.114-1.227-.343-1.693a3.1 3.1 0 0 0-.929-1.133c-.39-.29-.846-.5-1.369-.63a6.882 6.882 0 0 0-1.657-.196Zm.031 5.786h-.831V47.86h.944c.335 0 .654.042.959.128.304.086.569.214.795.385.225.17.405.388.538.65.134.264.2.574.2.93 0 .41-.066.757-.2 1.04a1.787 1.787 0 0 1-.549.687c-.232.175-.508.3-.826.375a4.461 4.461 0 0 1-1.03.113Zm7.324-5.786h1.323l3.16 7.263h-1.806l-.626-1.539h-2.82l-.606 1.539h-1.764l3.139-7.263Zm.615 2.113-.882 2.257h1.775l-.893-2.257Zm2.363-2.113 2.728 4.165v3.098h1.601v-3.098l2.728-4.165h-1.898l-1.631 2.719-1.538-2.719h-1.99Zm7.769 1.337c0-.803.652-1.395 1.422-1.395.763 0 1.414.592 1.414 1.395 0 .811-.651 1.404-1.414 1.404-.77 0-1.422-.592-1.422-1.404Zm1.421 1.169c.634 0 1.133-.495 1.133-1.169 0-.663-.499-1.163-1.133-1.163-.64 0-1.141.5-1.141 1.163 0 .674.501 1.169 1.141 1.169Zm-.295-.357h-.245v-1.615h.614c.382 0 .571.14.571.46 0 .288-.182.413-.418.443l.459.712h-.275l-.425-.701h-.281v.7Zm.293-.909c.207 0 .391-.014.391-.262 0-.2-.18-.237-.352-.237h-.332v.5h.293Z" clip-rule="evenodd"/>
</svg>
